# Blender v2.67 (sub 0) OBJ File: ''
# www.blender.org
mtllib placeholder.mtl
o Cylinder
v 0.138319 -1.694003 -0.079743
v 0.138319 0.305997 -0.079743
v 0.138319 -1.694003 -1.079743
v 0.138319 0.305997 -1.079743
v 0.333409 -1.694003 -1.060528
v 0.333409 0.305997 -1.060528
v 0.521002 -1.694003 -1.003623
v 0.521002 0.305997 -1.003623
v 0.693889 -1.694003 -0.911213
v 0.693889 0.305997 -0.911213
v 0.845426 -1.694003 -0.786850
v 0.845426 0.305997 -0.786850
v 0.969789 -1.694003 -0.635313
v 0.969789 0.305997 -0.635313
v 1.062198 -1.694003 -0.462427
v 1.062198 0.305997 -0.462427
v 1.119104 -1.694003 -0.274833
v 1.119104 0.305997 -0.274833
v 1.138319 -1.694003 -0.079743
v 1.138319 0.305997 -0.079743
v 1.119104 -1.694003 0.115347
v 1.119104 0.305997 0.115347
v 1.062198 -1.694003 0.302940
v 1.062198 0.305997 0.302940
v 0.969789 -1.694003 0.475827
v 0.969789 0.305997 0.475827
v 0.845426 -1.694003 0.627364
v 0.845426 0.305997 0.627364
v 0.693889 -1.694003 0.751727
v 0.693889 0.305997 0.751727
v 0.521002 -1.694003 0.844137
v 0.521002 0.305997 0.844137
v 0.333409 -1.694003 0.901042
v 0.333409 0.305997 0.901042
v 0.138319 -1.694003 0.920257
v 0.138319 0.305997 0.920257
v -0.056772 -1.694003 0.901042
v -0.056772 0.305997 0.901042
v -0.244365 -1.694003 0.844136
v -0.244365 0.305997 0.844136
v -0.417252 -1.694003 0.751726
v -0.417252 0.305997 0.751726
v -0.568788 -1.694003 0.627363
v -0.568788 0.305997 0.627363
v -0.693151 -1.694003 0.475827
v -0.693151 0.305997 0.475827
v -0.785561 -1.694003 0.302940
v -0.785561 0.305997 0.302940
v -0.842467 -1.694003 0.115346
v -0.842467 0.305997 0.115346
v -0.861681 -1.694003 -0.079744
v -0.861681 0.305997 -0.079744
v -0.842466 -1.694003 -0.274834
v -0.842466 0.305997 -0.274834
v -0.785560 -1.694003 -0.462428
v -0.785560 0.305997 -0.462428
v -0.693150 -1.694003 -0.635314
v -0.693150 0.305997 -0.635314
v -0.568787 -1.694003 -0.786851
v -0.568787 0.305997 -0.786851
v -0.417250 -1.694003 -0.911213
v -0.417250 0.305997 -0.911213
v -0.244363 -1.694003 -1.003623
v -0.244363 0.305997 -1.003623
v -0.056770 -1.694003 -1.060529
v -0.056770 0.305997 -1.060529
vn -0.000000 -1.000000 0.000000
vn 0.000000 1.000000 -0.000000
vn 0.098017 0.000000 -0.995185
vn 0.290285 0.000000 -0.956940
vn 0.471396 0.000000 -0.881921
vn 0.634393 0.000000 -0.773010
vn 0.773010 0.000000 -0.634393
vn 0.881921 0.000000 -0.471397
vn 0.956940 0.000000 -0.290285
vn 0.995185 0.000000 -0.098017
vn 0.995185 0.000000 0.098017
vn 0.956940 0.000000 0.290285
vn 0.881922 0.000000 0.471396
vn 0.773010 0.000000 0.634393
vn 0.634393 0.000000 0.773010
vn 0.471397 0.000000 0.881921
vn 0.290284 0.000000 0.956940
vn 0.098017 0.000000 0.995185
vn -0.098018 0.000000 0.995185
vn -0.290285 0.000000 0.956940
vn -0.471397 0.000000 0.881921
vn -0.634394 0.000000 0.773010
vn -0.773011 0.000000 0.634393
vn -0.881922 0.000000 0.471396
vn -0.956941 0.000000 0.290284
vn -0.995185 0.000000 0.098016
vn -0.995185 -0.000000 -0.098018
vn -0.956940 -0.000000 -0.290286
vn -0.881921 -0.000000 -0.471398
vn -0.773010 -0.000000 -0.634394
vn -0.634392 -0.000000 -0.773011
vn -0.471395 -0.000000 -0.881922
vn -0.290283 -0.000000 -0.956941
vn -0.098016 -0.000000 -0.995185
usemtl None
s off
f 1//1 3//1 5//1
f 2//2 6//2 4//2
f 3//3 4//3 6//3
f 1//1 5//1 7//1
f 2//2 8//2 6//2
f 5//4 6//4 8//4
f 1//1 7//1 9//1
f 2//2 10//2 8//2
f 7//5 8//5 10//5
f 1//1 9//1 11//1
f 2//2 12//2 10//2
f 9//6 10//6 12//6
f 1//1 11//1 13//1
f 2//2 14//2 12//2
f 11//7 12//7 14//7
f 1//1 13//1 15//1
f 2//2 16//2 14//2
f 13//8 14//8 16//8
f 1//1 15//1 17//1
f 2//2 18//2 16//2
f 15//9 16//9 18//9
f 1//1 17//1 19//1
f 2//2 20//2 18//2
f 17//10 18//10 20//10
f 1//1 19//1 21//1
f 2//2 22//2 20//2
f 19//11 20//11 22//11
f 1//1 21//1 23//1
f 2//2 24//2 22//2
f 21//12 22//12 24//12
f 1//1 23//1 25//1
f 2//2 26//2 24//2
f 23//13 24//13 26//13
f 1//1 25//1 27//1
f 2//2 28//2 26//2
f 25//14 26//14 28//14
f 1//1 27//1 29//1
f 2//2 30//2 28//2
f 27//15 28//15 30//15
f 1//1 29//1 31//1
f 2//2 32//2 30//2
f 29//16 30//16 32//16
f 1//1 31//1 33//1
f 2//2 34//2 32//2
f 31//17 32//17 34//17
f 1//1 33//1 35//1
f 2//2 36//2 34//2
f 33//18 34//18 36//18
f 1//1 35//1 37//1
f 2//2 38//2 36//2
f 35//19 36//19 37//19
f 1//1 37//1 39//1
f 2//2 40//2 38//2
f 37//20 38//20 39//20
f 1//1 39//1 41//1
f 2//2 42//2 40//2
f 39//21 40//21 41//21
f 1//1 41//1 43//1
f 2//2 44//2 42//2
f 41//22 42//22 43//22
f 1//1 43//1 45//1
f 2//2 46//2 44//2
f 43//23 44//23 45//23
f 1//1 45//1 47//1
f 2//2 48//2 46//2
f 45//24 46//24 47//24
f 1//1 47//1 49//1
f 2//2 50//2 48//2
f 47//25 48//25 49//25
f 1//1 49//1 51//1
f 2//2 52//2 50//2
f 49//26 50//26 51//26
f 1//1 51//1 53//1
f 2//2 54//2 52//2
f 51//27 52//27 53//27
f 1//1 53//1 55//1
f 2//2 56//2 54//2
f 53//28 54//28 55//28
f 1//1 55//1 57//1
f 2//2 58//2 56//2
f 55//29 56//29 57//29
f 1//1 57//1 59//1
f 2//2 60//2 58//2
f 57//30 58//30 59//30
f 1//1 59//1 61//1
f 2//2 62//2 60//2
f 59//31 60//31 61//31
f 1//1 61//1 63//1
f 2//2 64//2 62//2
f 61//32 62//32 63//32
f 1//1 63//1 65//1
f 2//2 66//2 64//2
f 63//33 64//33 65//33
f 1//1 65//1 3//1
f 2//2 4//2 66//2
f 65//34 66//34 3//34
f 5//3 3//3 6//3
f 7//4 5//4 8//4
f 9//5 7//5 10//5
f 11//6 9//6 12//6
f 13//7 11//7 14//7
f 15//8 13//8 16//8
f 17//9 15//9 18//9
f 19//10 17//10 20//10
f 21//11 19//11 22//11
f 23//12 21//12 24//12
f 25//13 23//13 26//13
f 27//14 25//14 28//14
f 29//15 27//15 30//15
f 31//16 29//16 32//16
f 33//17 31//17 34//17
f 35//18 33//18 36//18
f 36//19 38//19 37//19
f 38//20 40//20 39//20
f 40//21 42//21 41//21
f 42//22 44//22 43//22
f 44//23 46//23 45//23
f 46//24 48//24 47//24
f 48//25 50//25 49//25
f 50//26 52//26 51//26
f 52//27 54//27 53//27
f 54//28 56//28 55//28
f 56//29 58//29 57//29
f 58//30 60//30 59//30
f 60//31 62//31 61//31
f 62//32 64//32 63//32
f 64//33 66//33 65//33
f 66//34 4//34 3//34
