# Blender v2.67 (sub 0) OBJ File: 'injector.blend'
# www.blender.org
mtllib injector.mtl
o Cube
v 0.285776 0.083333 -0.285776
v 0.285776 0.083333 0.285776
v -0.285776 0.083333 0.285775
v -0.285775 0.083333 -0.285776
v 0.823676 1.916667 -0.823675
v 0.823675 1.916667 0.823676
v -0.823676 1.916667 0.823675
v -0.823676 1.916667 -0.823676
v 0.309742 0.062500 -0.000000
v 0.000000 0.062500 -0.309742
v 0.417696 0.972713 -0.417696
v 0.000000 0.062500 0.309742
v 0.417696 0.972713 0.417696
v -0.309742 0.062500 -0.000000
v -0.417696 0.972713 0.417696
v -0.417696 0.972713 -0.417696
v 0.974493 1.937500 0.000001
v 0.000000 1.937500 -0.974493
v -0.000001 1.937500 0.974494
v -0.974494 1.937500 -0.000000
v 0.000000 0.000000 -0.000000
v -0.000000 2.000000 0.000000
v 0.550409 0.972388 0.000000
v -0.000000 0.972388 0.550409
v -0.550409 0.972388 -0.000000
v 0.000000 0.972388 -0.550409
v 0.301600 0.062500 0.160175
v -0.160175 0.062500 -0.301600
v 0.770159 1.522403 -0.770158
v -0.160175 0.062500 0.301599
v 0.770158 1.522403 0.770159
v -0.301599 0.062500 -0.160175
v -0.770159 1.522403 0.770158
v -0.770158 1.522403 -0.770158
v 0.929395 1.937500 0.483675
v -0.483674 1.937500 -0.929395
v -0.483675 1.937500 0.929395
v -0.929395 1.937500 -0.483674
v 0.301600 0.062500 -0.160175
v 0.160175 0.062500 -0.301600
v 0.357292 0.510417 -0.357292
v 0.160175 0.062500 0.301599
v 0.357292 0.510417 0.357292
v -0.301599 0.062500 0.160175
v -0.357292 0.510417 0.357292
v -0.357292 0.510417 -0.357292
v 0.929395 1.937500 -0.483674
v 0.483674 1.937500 -0.929395
v 0.483674 1.937500 0.929395
v -0.929395 1.937500 0.483674
v -0.150000 0.000000 -0.000000
v 0.150000 0.000000 -0.000000
v 0.000000 0.000000 -0.150000
v 0.000000 0.000000 0.150000
v -0.000000 2.000000 0.532883
v 0.000000 2.000000 -0.532883
v 0.532883 2.000000 0.000000
v -0.532883 2.000000 -0.000000
v 0.528755 0.972388 0.254779
v 0.528755 0.972388 -0.254779
v 0.487793 0.507812 0.000000
v 0.950772 1.525002 0.000000
v -0.254779 0.972388 0.528755
v 0.254778 0.972388 0.528755
v -0.000000 0.507812 0.487793
v -0.000000 1.525002 0.950773
v -0.528755 0.972388 -0.254779
v -0.528755 0.972388 0.254779
v -0.487793 0.507812 -0.000000
v -0.950773 1.525002 -0.000000
v -0.254779 0.972388 -0.528755
v 0.254779 0.972388 -0.528755
v 0.000000 1.525002 -0.950772
v 0.000000 0.507812 -0.487793
v -0.150000 0.000000 0.150000
v -0.500000 2.000000 0.500000
v 0.922289 1.525002 0.452113
v -0.452113 1.525002 0.922289
v -0.922289 1.525002 -0.452113
v -0.216007 0.507812 -0.450080
v -0.150000 0.000000 -0.150000
v 0.150000 0.000000 -0.150000
v 0.150000 0.000000 0.150000
v 0.500000 2.000000 0.500000
v 0.500000 2.000000 -0.500000
v -0.500000 2.000000 -0.500000
v 0.450080 0.507812 0.216007
v 0.450080 0.507812 -0.216007
v 0.922289 1.525002 -0.452112
v -0.216007 0.507812 0.450080
v 0.216007 0.507812 0.450080
v 0.452112 1.525002 0.922289
v -0.450080 0.507812 -0.216007
v -0.450080 0.507812 0.216007
v -0.922289 1.525002 0.452112
v -0.452113 1.525002 -0.922289
v 0.452113 1.525002 -0.922289
v 0.216007 0.507812 -0.450080
v 0.631687 1.262516 0.000000
v -0.000000 1.262516 0.631687
v -0.631687 1.262516 -0.000000
v 0.502093 1.262557 -0.502092
v 0.502092 1.262557 0.502093
v -0.502093 1.262557 0.502092
v -0.502092 1.262557 -0.502092
v 0.000000 1.262516 -0.631687
v 0.615043 1.262516 0.299353
v -0.299353 1.262516 0.615043
v -0.615043 1.262516 -0.299353
v 0.615043 1.262516 -0.299353
v 0.299353 1.262516 0.615043
v -0.615043 1.262516 0.299353
v -0.299353 1.262516 -0.615043
v 0.299353 1.262516 -0.615043
vt 0.717644 0.349338
vt 0.717123 0.378410
vt 0.692966 0.376565
vt 0.289777 0.099215
vt 0.294219 0.017101
vt 0.371317 0.109879
vt 0.445072 0.299211
vt 0.437736 0.376485
vt 0.382192 0.292231
vt 0.759370 0.677674
vt 0.752034 0.754948
vt 0.685702 0.746531
vt 0.445072 0.677674
vt 0.437736 0.754948
vt 0.371404 0.746531
vt 0.254883 0.460853
vt 0.243605 0.371446
vt 0.280482 0.457421
vt 0.714827 0.291995
vt 0.716235 0.320666
vt 0.685754 0.291474
vt 0.772169 0.289178
vt 0.773578 0.317849
vt 0.744907 0.319258
vt 0.774986 0.346521
vt 0.778355 0.375402
vt 0.746315 0.347929
vt 0.272189 0.289778
vt 0.287249 0.195075
vt 0.354302 0.294219
vt 0.081626 0.272189
vt 0.084154 0.176329
vt 0.185702 0.185702
vt 0.099215 0.081626
vt 0.109879 0.000087
vt 0.202842 0.000000
vt 0.486757 0.089392
vt 0.478906 0.179419
vt 0.458445 0.085923
vt 0.569181 0.089449
vt 0.576124 0.179487
vt 0.527829 0.180371
vt 0.617589 0.299331
vt 0.622296 0.376613
vt 0.530671 0.378463
vt 0.801055 0.467854
vt 0.793204 0.557882
vt 0.760507 0.553210
vt 0.883479 0.467911
vt 0.890422 0.557949
vt 0.842128 0.558834
vt 0.931887 0.677793
vt 0.936594 0.755076
vt 0.844969 0.756925
vt 0.486757 0.467854
vt 0.478906 0.557882
vt 0.446209 0.553210
vt 0.569181 0.467911
vt 0.576124 0.557949
vt 0.528516 0.469483
vt 0.617589 0.677793
vt 0.622296 0.755076
vt 0.531744 0.678942
vt 0.270587 0.608698
vt 0.261826 0.550890
vt 0.307627 0.603941
vt 0.156359 0.608619
vt 0.164608 0.550823
vt 0.213715 0.609364
vt 0.172459 0.460796
vt 0.182485 0.371404
vt 0.214218 0.462424
vt 0.688762 0.352706
vt 0.747815 0.378463
vt 0.371404 0.202842
vt 0.195075 0.084154
vt 0.770402 0.153709
vt 0.832650 0.132804
vt 0.782552 0.196429
vt 0.528013 0.237961
vt 0.531744 0.300479
vt 0.470658 0.237215
vt 0.685702 0.153709
vt 0.747950 0.132804
vt 0.770402 0.196429
vt 0.842311 0.616423
vt 0.846042 0.678942
vt 0.855102 0.111899
vt 0.792854 0.132804
vt 0.770402 0.069179
vt 0.528013 0.616423
vt 0.530671 0.756925
vt 0.291296 0.546261
vt 0.213531 0.551775
vt 0.213163 0.371770
vt 0.711458 0.263114
vt 0.687599 0.267318
vt 0.741998 0.260053
vt 0.743498 0.290587
vt 0.772691 0.260106
vt 0.796847 0.261951
vt 0.801051 0.285810
vt 0.804111 0.316349
vt 0.804059 0.347042
vt 0.802214 0.371198
vt 0.261525 0.371317
vt 0.328176 0.357151
vt 0.168562 0.371404
vt 0.176329 0.287249
vt 0.077185 0.354302
vt 0.014253 0.328176
vt 0.000087 0.261525
vt 0.000000 0.168562
vt 0.017101 0.077185
vt 0.043228 0.014253
vt 0.496783 0.000000
vt 0.472519 0.003200
vt 0.527461 0.000367
vt 0.528516 0.091020
vt 0.557903 0.000042
vt 0.581565 0.003275
vt 0.594781 0.086017
vt 0.605594 0.174858
vt 0.584885 0.237294
vt 0.758252 0.063625
vt 0.685702 0.063625
vt 0.708154 0.000000
vt 0.676069 0.292434
vt 0.685702 0.368286
vt 0.811081 0.378463
vt 0.772743 0.464386
vt 0.841759 0.378829
vt 0.842815 0.469483
vt 0.872201 0.378505
vt 0.895863 0.381738
vt 0.909079 0.464480
vt 0.919892 0.553320
vt 0.899183 0.615757
vt 0.855102 0.196429
vt 0.832650 0.260053
vt 0.990367 0.670897
vt 1.000000 0.746749
vt 0.496783 0.378463
vt 0.458445 0.464385
vt 0.527461 0.378829
vt 0.527829 0.558834
vt 0.557903 0.378505
vt 0.581565 0.381738
vt 0.594781 0.464480
vt 0.605594 0.553320
vt 0.584885 0.615757
vt 0.697852 0.196429
vt 0.685702 0.239148
vt 0.676069 0.670897
vt 0.685702 0.746748
vt 0.307998 0.748017
vt 0.303291 0.670735
vt 0.371404 0.739690
vt 0.216373 0.749866
vt 0.217445 0.671883
vt 0.123438 0.747889
vt 0.130773 0.670615
vt 0.057106 0.739472
vt 0.067894 0.663635
vt 0.116039 0.603808
vt 0.131911 0.546151
vt 0.144147 0.457327
vt 0.158220 0.374604
vt 0.792854 0.005555
vt 0.855102 0.026460
vt 0.446209 0.174747
vt 0.784956 0.615678
vt 0.744635 0.610867
vt 0.470658 0.615678
vt 0.430337 0.610867
vt 0.621925 0.232537
vt 0.936224 0.611000
vt 0.621925 0.611000
vt 0.708154 0.127249
vt 0.357151 0.043228
vt 0.371404 0.368068
vt 0.696490 0.670693
vt 0.382192 0.670693
vt 0.267267 0.374679
vt 0.685702 0.322166
vt 0.842952 0.069179
vt 0.770402 0.020905
vt 0.786817 0.381662
vt 0.770402 0.239148
vt 0.472519 0.381662
vt 0.747950 0.260053
vt 0.361771 0.663838
vt 0.430337 0.232404
vt 0.770402 0.106344
vn -0.196766 -0.911023 0.362382
vn -0.147957 0.977864 0.147957
vn 0.901203 -0.048477 0.430677
vn -0.294512 -0.038982 0.954852
vn -0.954853 -0.038983 -0.294511
vn -0.522807 -0.327911 -0.786859
vn -0.381150 -0.924513 -0.000000
vn 0.000000 -1.000000 0.000000
vn -0.000000 -0.924513 0.381150
vn 0.009495 0.989476 0.144383
vn -0.000000 1.000000 0.000000
vn -0.144525 0.989409 -0.013476
vn 0.820013 -0.184094 0.541930
vn 0.981357 -0.173151 -0.083405
vn 0.995388 -0.024248 -0.092811
vn -0.553923 -0.183745 0.812039
vn 0.083405 -0.173151 0.981357
vn 0.092811 -0.024248 0.995389
vn -0.812039 -0.183745 -0.553923
vn -0.969318 -0.178275 0.169234
vn -0.997780 -0.021998 0.062861
vn -0.461588 -0.317297 -0.828408
vn 0.053093 -0.292156 -0.954896
vn 0.162333 -0.330372 -0.929786
vn -0.018519 -0.931098 0.364298
vn -0.009216 0.990091 0.140125
vn -0.140125 0.990091 0.009215
vn 0.531080 -0.793925 0.296036
vn 0.634893 -0.771793 0.035300
vn 0.996382 -0.057297 0.062773
vn -0.256936 -0.794160 0.550720
vn -0.039992 -0.771657 0.634781
vn -0.092688 -0.057164 0.994053
vn -0.550720 -0.794160 -0.256936
vn -0.634781 -0.771657 -0.039992
vn -0.994053 -0.057164 -0.092687
vn -0.553922 -0.183745 -0.812039
vn -0.083931 -0.133101 -0.987542
vn -0.160024 -0.366474 -0.916564
vn -0.196766 -0.911023 -0.362382
vn -0.018519 -0.931098 -0.364298
vn 0.019316 -0.924797 -0.379970
vn 0.183292 -0.965820 -0.183292
vn 0.379970 -0.924797 -0.019316
vn 0.379970 -0.924797 0.019316
vn 0.183292 -0.965820 0.183292
vn 0.147170 0.983413 0.106019
vn 0.140119 0.990048 0.013065
vn 0.144383 0.989476 -0.009495
vn 0.106018 0.983413 -0.147170
vn 0.013065 0.990048 -0.140119
vn -0.013476 0.989409 -0.144525
vn -0.088229 0.992185 -0.088229
vn 0.927888 -0.330925 0.171791
vn 0.927497 -0.370845 0.047149
vn 0.976529 -0.131616 0.170494
vn 0.929786 -0.330372 -0.162333
vn 0.812306 -0.226054 -0.537642
vn 0.812820 -0.178648 -0.554445
vn 0.637412 -0.769476 -0.040157
vn 0.534194 -0.807884 -0.248918
vn 0.944397 -0.166666 -0.283436
vn -0.522807 -0.327911 0.786859
vn -0.160024 -0.366474 0.916564
vn -0.083931 -0.133101 0.987542
vn 0.162333 -0.330372 0.929786
vn 0.537642 -0.226054 0.812306
vn 0.554445 -0.178648 0.812820
vn 0.040157 -0.769476 0.637412
vn 0.248918 -0.807884 0.534194
vn 0.283436 -0.166666 0.944398
vn -0.786859 -0.327911 -0.522807
vn -0.916564 -0.366474 -0.160024
vn -0.987542 -0.133101 -0.083931
vn -0.945734 -0.321365 0.048076
vn -0.970086 -0.188136 0.153423
vn -0.820979 -0.178147 0.542455
vn -0.638875 -0.768490 0.035522
vn -0.506873 -0.814398 0.282553
vn -0.888261 -0.178048 0.423427
vn -0.294511 -0.038982 -0.954853
vn -0.092687 -0.057163 -0.994053
vn -0.053462 -0.269376 -0.961550
vn 0.092812 -0.024248 -0.995388
vn 0.283437 -0.166666 -0.944397
vn 0.452544 -0.368253 -0.812154
vn 0.083405 -0.173151 -0.981357
vn 0.554445 -0.178648 -0.812819
vn 0.537642 -0.226054 -0.812306
vn -0.256936 -0.794160 -0.550721
vn 0.040158 -0.769476 -0.637412
vn 0.783834 -0.315313 0.534959
vn 0.959719 -0.268863 0.081567
vn -0.461589 -0.317297 0.828407
vn -0.053462 -0.269376 0.961550
vn -0.828407 -0.317297 -0.461588
vn -0.961550 -0.269376 -0.053463
vn 0.954896 -0.292156 -0.053092
vn 0.812154 -0.368253 -0.452543
vn 0.053092 -0.292157 0.954896
vn 0.452543 -0.368253 0.812154
vn -0.951899 -0.295537 0.080901
vn -0.765595 -0.375108 0.522645
vn -0.039992 -0.771657 -0.634781
vn 0.248919 -0.807884 -0.534194
vn -0.362382 -0.911023 0.196765
vn -0.088229 0.992185 0.088229
vn 0.944397 -0.166666 0.283437
vn -0.423427 -0.178048 0.888261
vn -0.888261 -0.178048 -0.423427
vn -0.153423 -0.188136 -0.970086
vn -0.364298 -0.931098 -0.018519
vn 0.018519 -0.931098 0.364298
vn 0.013065 0.990048 0.140119
vn -0.140125 0.990091 -0.009216
vn 0.812820 -0.178648 0.554445
vn 0.976529 -0.131616 -0.170493
vn 0.996382 -0.057297 -0.062772
vn -0.542455 -0.178147 0.820979
vn 0.170493 -0.131616 0.976529
vn 0.062772 -0.057297 0.996382
vn -0.820979 -0.178147 -0.542455
vn -0.987542 -0.133101 0.083931
vn -0.994053 -0.057164 0.092687
vn -0.522645 -0.375108 -0.765595
vn 0.081566 -0.268863 -0.959719
vn 0.047149 -0.370845 -0.927497
vn -0.364298 -0.931098 0.018519
vn -0.013476 0.989410 0.144525
vn -0.144525 0.989410 0.013476
vn 0.534194 -0.807884 0.248919
vn 0.637412 -0.769476 0.040158
vn 0.995388 -0.024248 0.092812
vn -0.282554 -0.814398 0.506873
vn -0.035522 -0.768490 0.638875
vn -0.062861 -0.021998 0.997780
vn -0.506873 -0.814398 -0.282554
vn -0.638875 -0.768490 -0.035522
vn -0.997780 -0.021998 -0.062861
vn -0.542455 -0.178147 -0.820979
vn -0.169234 -0.178275 -0.969318
vn -0.048076 -0.321364 -0.945734
vn -0.362382 -0.911023 -0.196766
vn 0.000000 -0.924513 -0.381150
vn 0.000000 -0.931258 -0.364360
vn 0.339037 -0.877558 -0.339037
vn 0.364360 -0.931258 0.000000
vn 0.339037 -0.877558 0.339037
vn 0.106018 0.983413 0.147170
vn 0.144383 0.989476 0.009496
vn 0.140119 0.990048 -0.013065
vn 0.147170 0.983413 -0.106018
vn 0.009496 0.989476 -0.144383
vn -0.009215 0.990091 -0.140125
vn -0.147957 0.977864 -0.147957
vn 0.812306 -0.226054 0.537642
vn 0.929786 -0.330372 0.162333
vn 0.981357 -0.173151 0.083406
vn 0.927497 -0.370845 -0.047149
vn 0.927888 -0.330925 -0.171791
vn 0.820013 -0.184094 -0.541930
vn 0.634893 -0.771793 -0.035300
vn 0.531080 -0.793925 -0.296036
vn 0.901204 -0.048477 -0.430676
vn -0.153423 -0.188136 0.970086
vn -0.048076 -0.321365 0.945734
vn -0.169235 -0.178275 0.969318
vn 0.047149 -0.370846 0.927497
vn 0.171790 -0.330925 0.927888
vn 0.541930 -0.184095 0.820013
vn 0.035300 -0.771793 0.634893
vn 0.296035 -0.793925 0.531080
vn 0.430676 -0.048477 0.901204
vn -0.970086 -0.188136 -0.153423
vn -0.945734 -0.321365 -0.048076
vn -0.969318 -0.178275 -0.169235
vn -0.916564 -0.366474 0.160024
vn -0.786859 -0.327911 0.522807
vn -0.812039 -0.183745 0.553923
vn -0.634781 -0.771657 0.039992
vn -0.550721 -0.794160 0.256936
vn -0.954853 -0.038983 0.294511
vn -0.423427 -0.178048 -0.888261
vn -0.062861 -0.021998 -0.997780
vn -0.080902 -0.295538 -0.951899
vn 0.062773 -0.057297 -0.996382
vn 0.430677 -0.048477 -0.901203
vn 0.534960 -0.315313 -0.783834
vn 0.170494 -0.131616 -0.976529
vn 0.541930 -0.184095 -0.820013
vn 0.171791 -0.330925 -0.927888
vn -0.282554 -0.814398 -0.506873
vn 0.035301 -0.771793 -0.634893
vn 0.812154 -0.368253 0.452544
vn 0.954896 -0.292156 0.053093
vn -0.522646 -0.375108 0.765595
vn -0.080902 -0.295538 0.951899
vn -0.765595 -0.375108 -0.522645
vn -0.951899 -0.295538 -0.080902
vn 0.959719 -0.268863 -0.081566
vn 0.783835 -0.315313 -0.534959
vn 0.081566 -0.268863 0.959719
vn 0.534959 -0.315313 0.783835
vn -0.961550 -0.269376 0.053462
vn -0.828408 -0.317297 0.461588
vn -0.035522 -0.768490 -0.638875
vn 0.296036 -0.793925 -0.531080
usemtl Material.004
s off
f 75/1/1 30/2/1 3/3/1
f 76/4/2 50/5/2 37/6/2
f 77/7/3 35/8/3 31/9/3
f 78/10/4 37/11/4 7/12/4
f 79/13/5 38/14/5 8/15/5
f 80/16/6 28/17/6 46/18/6
f 81/19/7 51/20/7 32/21/7
f 82/22/8 52/23/8 21/24/8
f 83/25/9 42/26/9 54/27/9
f 84/28/10 55/29/10 49/30/10
f 85/31/11 56/32/11 22/33/11
f 86/34/12 38/35/12 20/36/12
f 87/37/13 59/38/13 43/39/13
f 88/40/14 60/41/14 23/42/14
f 89/43/15 47/44/15 17/45/15
f 90/46/16 63/47/16 15/48/16
f 91/49/17 64/50/17 24/51/17
f 92/52/18 49/53/18 19/54/18
f 93/55/19 67/56/19 16/57/19
f 94/58/20 68/59/20 69/60/20
f 95/61/21 50/62/21 70/63/21
f 113/64/22 71/65/22 105/66/22
f 114/67/23 72/68/23 106/69/23
f 98/70/24 40/71/24 74/72/24
f 51/20/7 75/1/7 44/73/7
f 21/24/8 54/27/8 75/1/8
f 54/27/25 12/74/25 30/2/25
f 55/29/26 76/4/26 19/75/26
f 22/33/11 58/76/11 76/4/11
f 58/76/27 20/36/27 76/4/27
f 107/77/28 77/78/28 103/79/28
f 99/80/29 62/81/29 107/82/29
f 62/81/30 17/45/30 77/7/30
f 108/83/31 78/84/31 33/85/31
f 100/86/32 66/87/32 78/10/32
f 66/87/33 19/54/33 37/11/33
f 109/88/34 79/89/34 34/90/34
f 101/91/35 70/63/35 79/13/35
f 70/63/36 20/92/36 38/14/36
f 71/65/37 80/16/37 16/93/37
f 26/94/38 74/72/38 71/65/38
f 74/72/39 10/95/39 80/16/39
f 28/96/40 81/19/40 4/97/40
f 10/98/41 53/99/41 28/96/41
f 53/99/8 21/24/8 51/20/8
f 40/100/42 82/22/42 10/98/42
f 1/101/43 39/102/43 40/100/43
f 39/102/44 9/103/44 82/22/44
f 52/23/8 83/25/8 54/27/8
f 9/103/45 27/104/45 83/25/45
f 27/104/46 2/105/46 42/26/46
f 35/106/47 84/28/47 6/107/47
f 17/108/48 57/109/48 35/106/48
f 57/109/11 22/33/11 84/28/11
f 47/110/49 85/31/49 57/109/49
f 5/111/50 48/112/50 85/31/50
f 48/112/51 18/113/51 56/32/51
f 56/32/11 86/34/11 22/33/11
f 18/113/52 36/114/52 86/34/52
f 36/114/53 8/115/53 38/35/53
f 27/116/54 87/37/54 2/117/54
f 9/118/55 61/119/55 27/116/55
f 61/119/56 23/42/56 87/37/56
f 39/120/57 88/40/57 61/119/57
f 1/121/58 41/122/58 88/40/58
f 41/122/59 11/123/59 60/41/59
f 110/124/60 89/43/60 62/81/60
f 102/125/61 29/126/61 89/127/61
f 29/128/62 5/129/62 47/44/62
f 30/130/63 90/46/63 45/131/63
f 12/132/64 65/133/64 90/46/64
f 65/133/65 24/51/65 63/47/65
f 42/134/66 91/49/66 65/133/66
f 2/135/67 43/136/67 91/49/67
f 43/136/68 13/137/68 64/50/68
f 111/138/69 92/52/69 66/87/69
f 103/79/70 31/139/70 92/140/70
f 31/141/71 6/142/71 49/53/71
f 32/143/72 93/55/72 46/144/72
f 14/145/73 69/60/73 93/55/73
f 69/60/74 25/146/74 67/56/74
f 44/147/75 94/58/75 14/145/75
f 3/148/76 45/149/76 44/147/76
f 45/149/77 15/150/77 94/58/77
f 112/151/78 95/61/78 101/91/78
f 104/152/79 33/85/79 112/153/79
f 33/154/80 7/155/80 95/61/80
f 36/156/81 96/157/81 8/158/81
f 18/159/82 73/160/82 36/156/82
f 106/69/83 26/94/83 113/64/83
f 48/161/84 97/162/84 18/159/84
f 5/163/85 29/164/85 48/161/85
f 102/165/86 11/166/86 114/67/86
f 72/68/87 98/70/87 26/94/87
f 11/166/88 41/167/88 72/68/88
f 41/167/89 1/168/89 98/70/89
f 96/169/90 113/170/90 34/90/90
f 97/162/91 114/67/91 73/160/91
f 59/38/92 107/82/92 13/171/92
f 23/42/93 99/80/93 59/38/93
f 63/47/94 108/172/94 104/173/94
f 24/51/95 100/86/95 108/172/95
f 67/56/96 109/174/96 105/175/96
f 25/146/97 101/91/97 109/174/97
f 60/41/98 110/124/98 99/80/98
f 11/123/99 102/176/99 110/124/99
f 64/50/100 111/138/100 100/86/100
f 13/137/101 103/177/101 111/138/101
f 68/59/102 112/151/102 25/146/102
f 15/150/103 104/178/103 68/59/103
f 73/160/104 106/69/104 96/157/104
f 29/126/105 102/125/105 97/179/105
f 44/73/106 75/1/106 3/3/106
f 50/5/107 7/180/107 37/6/107
f 35/8/108 6/181/108 31/9/108
f 33/182/109 78/10/109 7/12/109
f 34/183/110 79/13/110 8/15/110
f 28/17/111 4/184/111 46/18/111
f 51/20/112 14/185/112 32/21/112
f 53/99/8 82/22/8 21/24/8
f 42/26/113 12/74/113 54/27/113
f 55/29/114 19/75/114 49/30/114
f 57/109/11 85/31/11 22/33/11
f 58/76/115 86/34/115 20/36/115
f 59/38/116 13/171/116 43/39/116
f 61/119/117 88/40/117 23/42/117
f 62/81/118 89/43/118 17/45/118
f 45/131/119 90/46/119 15/48/119
f 65/133/120 91/49/120 24/51/120
f 66/87/121 92/52/121 19/54/121
f 46/144/122 93/55/122 16/57/122
f 68/59/123 25/146/123 69/60/123
f 50/62/124 20/92/124 70/63/124
f 71/65/125 16/93/125 105/66/125
f 72/68/126 26/94/126 106/69/126
f 40/71/127 10/95/127 74/72/127
f 14/185/128 51/20/128 44/73/128
f 51/20/8 21/24/8 75/1/8
f 75/1/9 54/27/9 30/2/9
f 76/4/129 37/6/129 19/75/129
f 55/29/11 22/33/11 76/4/11
f 20/36/130 50/5/130 76/4/130
f 77/78/131 31/139/131 103/79/131
f 62/81/132 77/7/132 107/82/132
f 17/45/133 35/8/133 77/7/133
f 104/152/134 108/83/134 33/85/134
f 108/172/135 100/86/135 78/10/135
f 78/10/136 66/87/136 37/11/136
f 105/186/137 109/88/137 34/90/137
f 109/174/138 101/91/138 79/13/138
f 79/13/139 70/63/139 38/14/139
f 80/16/140 46/18/140 16/93/140
f 74/72/141 80/16/141 71/65/141
f 10/95/142 28/17/142 80/16/142
f 81/19/143 32/21/143 4/97/143
f 53/99/144 81/19/144 28/96/144
f 81/19/8 53/99/8 51/20/8
f 82/22/145 53/99/145 10/98/145
f 39/102/146 82/22/146 40/100/146
f 9/103/147 52/23/147 82/22/147
f 21/24/8 52/23/8 54/27/8
f 52/23/147 9/103/147 83/25/147
f 83/25/148 27/104/148 42/26/148
f 84/28/149 49/30/149 6/107/149
f 57/109/150 84/28/150 35/106/150
f 22/33/11 55/29/11 84/28/11
f 17/108/151 47/110/151 57/109/151
f 47/110/152 5/111/152 85/31/152
f 85/31/153 48/112/153 56/32/153
f 86/34/11 58/76/11 22/33/11
f 56/32/154 18/113/154 86/34/154
f 86/34/155 36/114/155 38/35/155
f 87/37/156 43/39/156 2/117/156
f 61/119/157 87/37/157 27/116/157
f 23/42/158 59/38/158 87/37/158
f 9/118/159 39/120/159 61/119/159
f 39/120/160 1/121/160 88/40/160
f 88/40/161 41/122/161 60/41/161
f 99/80/162 110/124/162 62/81/162
f 110/187/163 102/125/163 89/127/163
f 89/43/164 29/128/164 47/44/164
f 3/188/165 30/130/165 45/131/165
f 30/130/166 12/132/166 90/46/166
f 90/46/167 65/133/167 63/47/167
f 12/132/168 42/134/168 65/133/168
f 42/134/169 2/135/169 91/49/169
f 91/49/170 43/136/170 64/50/170
f 100/86/171 111/138/171 66/87/171
f 111/189/172 103/79/172 92/140/172
f 92/52/173 31/141/173 49/53/173
f 4/190/174 32/143/174 46/144/174
f 32/143/175 14/145/175 93/55/175
f 93/55/176 69/60/176 67/56/176
f 94/58/177 69/60/177 14/145/177
f 45/149/178 94/58/178 44/147/178
f 15/150/179 68/59/179 94/58/179
f 95/61/180 70/63/180 101/91/180
f 33/85/181 95/191/181 112/153/181
f 7/155/182 50/62/182 95/61/182
f 96/157/183 34/192/183 8/158/183
f 73/160/184 96/157/184 36/156/184
f 26/94/185 71/65/185 113/64/185
f 97/162/186 73/160/186 18/159/186
f 29/164/187 97/162/187 48/161/187
f 11/166/188 72/68/188 114/67/188
f 98/70/189 74/72/189 26/94/189
f 41/167/190 98/70/190 72/68/190
f 1/168/191 40/71/191 98/70/191
f 113/170/192 105/186/192 34/90/192
f 114/67/193 106/69/193 73/160/193
f 107/82/194 103/193/194 13/171/194
f 99/80/195 107/82/195 59/38/195
f 15/48/196 63/47/196 104/173/196
f 63/47/197 24/51/197 108/172/197
f 16/57/198 67/56/198 105/175/198
f 67/56/199 25/146/199 109/174/199
f 23/42/200 60/41/200 99/80/200
f 60/41/201 11/123/201 110/124/201
f 24/51/202 64/50/202 100/86/202
f 64/50/203 13/137/203 111/138/203
f 112/151/204 101/91/204 25/146/204
f 104/178/205 112/151/205 68/59/205
f 106/69/206 113/64/206 96/157/206
f 102/125/207 114/194/207 97/179/207
